<svg width="31" height="31" viewBox="0 0 31 31" fill="none" xmlns="http://www.w3.org/2000/svg">
<path d="M26.8895 16.03C26.8895 15.6357 27.2086 15.3165 27.603 15.3165C27.9973 15.3165 28.3165 15.6356 28.3165 16.03V24.9859C28.3165 26.4857 27.7037 27.8483 26.716 28.8371C25.7283 29.8248 24.3645 30.4375 22.8658 30.4375H5.45156C3.95183 30.4375 2.58922 29.8247 1.60043 28.8371C0.612739 27.8494 0 26.4855 0 24.9859V7.57167C0 6.07194 0.61277 4.70932 1.60043 3.72147C2.58813 2.73378 3.95196 2.12104 5.45156 2.12104H14.4075C14.8018 2.12104 15.121 2.44015 15.121 2.83452C15.121 3.22885 14.8019 3.54799 14.4075 3.54799H5.45156C4.34496 3.54799 3.33906 4.00057 2.60984 4.73104C1.88059 5.46029 1.42679 6.46737 1.42679 7.57276V24.987C1.42679 26.0936 1.87938 27.0995 2.60984 27.8287C3.3391 28.558 4.34617 29.0118 5.45156 29.0118H22.8658C23.9724 29.0118 24.9783 28.5592 25.7076 27.8287C26.4368 27.0995 26.8906 26.0924 26.8906 24.987V16.0311L26.8895 16.03ZM13.6796 19.9479L10.4894 16.7578L10.1218 20.3141L13.6781 19.9465L13.6796 19.9479ZM10.9446 15.195L15.2412 19.4916L24.4046 10.3282L20.108 6.03159L10.9446 15.195ZM21.1176 5.02206L25.4141 9.31863L28.1673 6.56546C28.7291 6.00367 29.0106 5.2623 29.0106 4.52335C29.0106 3.7832 28.7291 3.04304 28.1673 2.48124L28.1697 2.48003L27.995 2.3053L27.9562 2.2689C27.3944 1.7071 26.6542 1.42561 25.9141 1.42561C25.1739 1.42561 24.4337 1.70712 23.8719 2.26769L21.1188 5.02206L21.1176 5.02206ZM9.43278 14.689L22.8611 1.2607C23.702 0.419841 24.8074 0 25.9115 0C27.0169 0 28.1223 0.419841 28.962 1.2607L28.9984 1.29953L29.1731 1.47426L29.1755 1.47183C30.0164 2.31269 30.4362 3.41808 30.4362 4.52226C30.4362 5.62765 30.0164 6.73304 29.1755 7.57269L15.7447 21.0035C15.6112 21.137 15.4377 21.2061 15.2642 21.2122L9.39495 21.8189C9.00304 21.8589 8.65479 21.575 8.61475 21.1831C8.60869 21.1297 8.6099 21.0775 8.61597 21.0265L9.22628 15.1197C9.24448 14.9498 9.31971 14.8006 9.43134 14.6889L9.43013 14.6877L9.43278 14.689Z" fill="black"/>
</svg>
